<?xml version="1.0" standalone="no"?>
<!DOCTYPE svg PUBLIC "-//W3C//DTD SVG 20010904//EN"
 "http://www.w3.org/TR/2001/REC-SVG-20010904/DTD/svg10.dtd">
<svg version="1.0" xmlns="http://www.w3.org/2000/svg"
 width="6364.000000pt" height="6364.000000pt" viewBox="0 0 6364.000000 6364.000000"
 preserveAspectRatio="xMidYMid meet">
<metadata>
Created by potrace 1.11, written by Peter Selinger 2001-2013
</metadata>
<g transform="translate(0.000000,6364.000000) scale(0.100000,-0.100000)"
fill="#000000" stroke="none">
<path d="M24567 58704 c-1 -1 -130 -5 -287 -9 -157 -3 -323 -8 -370 -10 -47
-2 -155 -7 -240 -10 -172 -6 -299 -12 -435 -20 -49 -3 -135 -8 -190 -10 -104
-5 -210 -12 -330 -20 -38 -2 -113 -7 -165 -10 -52 -3 -115 -8 -140 -10 -25 -2
-85 -7 -135 -10 -49 -3 -110 -7 -135 -10 -25 -2 -76 -7 -115 -10 -152 -11
-202 -15 -255 -20 -30 -3 -82 -7 -115 -10 -56 -4 -94 -8 -220 -20 -27 -2 -77
-7 -110 -10 -33 -3 -78 -7 -100 -10 -22 -2 -71 -7 -110 -10 -38 -4 -81 -8 -95
-10 -14 -2 -56 -7 -95 -10 -38 -4 -81 -8 -95 -10 -22 -3 -73 -9 -189 -21 -20
-2 -54 -5 -76 -8 -22 -3 -67 -7 -100 -10 -33 -3 -71 -8 -85 -10 -14 -3 -52 -8
-85 -11 -33 -3 -71 -8 -85 -10 -14 -2 -50 -6 -80 -9 -30 -4 -64 -8 -75 -10
-11 -2 -51 -7 -88 -11 -37 -3 -76 -8 -86 -10 -10 -2 -42 -6 -72 -9 -30 -3 -63
-8 -74 -10 -11 -2 -49 -7 -85 -11 -36 -4 -72 -9 -81 -10 -14 -3 -60 -9 -154
-21 -16 -2 -64 -8 -105 -14 -105 -16 -118 -18 -180 -25 -30 -4 -62 -9 -70 -10
-8 -2 -51 -8 -95 -15 -44 -6 -91 -13 -105 -15 -14 -2 -45 -7 -70 -10 -25 -3
-70 -10 -100 -15 -30 -5 -73 -12 -95 -15 -137 -20 -224 -34 -250 -39 -11 -2
-40 -7 -65 -10 -25 -3 -54 -8 -65 -10 -11 -2 -40 -7 -65 -11 -25 -4 -54 -9
-65 -11 -11 -2 -90 -15 -175 -28 -85 -14 -168 -28 -185 -31 -48 -9 -137 -24
-175 -30 -19 -3 -46 -8 -60 -10 -56 -12 -76 -15 -100 -20 -207 -36 -458 -81
-496 -90 -12 -3 -39 -7 -60 -11 -21 -3 -95 -17 -164 -31 -69 -13 -136 -26
-150 -29 -14 -2 -36 -7 -50 -10 -14 -3 -36 -8 -50 -11 -59 -11 -463 -92 -490
-98 -8 -2 -49 -11 -90 -20 -67 -14 -106 -22 -190 -40 -37 -7 -72 -15 -100 -21
-14 -3 -45 -10 -70 -15 -25 -5 -54 -11 -65 -14 -35 -7 -143 -31 -355 -80 -113
-26 -212 -48 -220 -50 -45 -10 -263 -62 -383 -91 -75 -18 -147 -36 -160 -38
-44 -9 -433 -106 -462 -115 -16 -6 -41 -12 -55 -15 -25 -5 -402 -103 -575
-150 -206 -55 -585 -162 -795 -223 -427 -124 -486 -141 -670 -198 -194 -59
-235 -72 -650 -206 -140 -46 -259 -84 -265 -85 -42 -9 -844 -289 -1115 -389
-85 -31 -195 -72 -245 -90 -279 -102 -1095 -423 -1220 -480 -16 -8 -70 -30
-120 -51 -49 -20 -108 -44 -130 -54 -22 -10 -125 -55 -229 -100 -184 -79 -257
-111 -342 -150 -23 -11 -86 -39 -140 -63 -55 -25 -153 -70 -219 -101 -66 -32
-156 -74 -200 -94 -117 -54 -852 -422 -975 -488 -185 -98 -464 -251 -500 -273
-19 -11 -42 -24 -50 -28 -16 -7 -192 -107 -250 -142 -19 -11 -42 -24 -50 -28
-8 -4 -71 -40 -140 -81 -69 -41 -134 -80 -145 -86 -11 -6 -31 -19 -45 -27 -14
-9 -117 -74 -230 -144 -464 -289 -583 -376 -757 -554 -108 -110 -194 -232
-259 -366 -95 -199 -125 -354 -116 -615 7 -218 6 -373 -2 -495 -7 -94 -9 -117
-22 -205 -2 -19 -7 -52 -9 -72 -12 -94 -14 -109 -19 -116 -2 -4 -7 -28 -11
-52 -3 -25 -8 -53 -11 -62 -3 -9 -7 -27 -9 -40 -54 -290 -201 -706 -370 -1053
-80 -163 -254 -470 -275 -485 -4 -3 -12 -15 -19 -27 -22 -42 -243 -339 -270
-363 -3 -3 -28 -32 -55 -65 -27 -33 -54 -64 -60 -70 -20 -18 -336 -418 -388
-490 -4 -5 -18 -23 -31 -40 -103 -130 -475 -677 -552 -812 -21 -38 -159 -269
-174 -293 -9 -14 -21 -34 -27 -45 -6 -11 -40 -74 -76 -140 -171 -313 -342
-669 -463 -965 -116 -285 -275 -751 -310 -910 -2 -8 -13 -53 -25 -100 -12 -47
-24 -96 -26 -110 -3 -14 -10 -43 -16 -65 -6 -22 -12 -47 -13 -55 -1 -8 -5 -28
-8 -45 -4 -16 -8 -41 -11 -55 -2 -14 -11 -63 -19 -110 -8 -47 -18 -107 -22
-133 -4 -27 -8 -57 -10 -67 -2 -11 -7 -50 -10 -87 -4 -37 -9 -77 -11 -88 -17
-92 -25 -644 -11 -810 11 -132 24 -259 32 -309 2 -11 9 -55 15 -96 6 -41 18
-109 27 -150 8 -41 19 -94 24 -117 40 -200 150 -524 254 -748 89 -191 252
-455 385 -620 87 -107 305 -327 410 -411 102 -83 249 -183 345 -236 151 -83
362 -164 475 -183 19 -3 53 -11 75 -17 46 -13 368 -17 435 -5 188 31 340 88
468 174 114 77 212 212 212 290 0 19 -9 71 -19 116 -28 120 -40 184 -47 257
-3 36 -8 76 -10 90 -5 33 -6 269 0 296 2 12 7 45 11 75 4 30 9 57 12 61 2 5 6
16 8 25 48 252 253 627 544 998 255 324 703 774 1106 1112 28 23 61 51 75 63
151 131 563 452 825 642 66 48 131 95 145 105 13 10 110 77 215 150 104 72
195 136 202 142 7 6 14 11 16 11 4 0 193 125 223 147 5 4 18 13 27 18 39 24
564 359 587 374 14 10 45 29 70 43 41 23 393 235 430 258 15 10 146 86 212
124 20 12 62 36 95 55 103 60 413 234 528 296 39 21 75 41 80 45 6 4 127 69
270 145 143 76 298 158 345 183 128 69 1054 532 1057 528 2 -1 5 -79 8 -172 3
-93 7 -223 10 -289 3 -66 7 -190 10 -275 3 -85 8 -204 10 -265 2 -60 7 -173
10 -250 3 -77 8 -196 10 -265 3 -69 8 -183 10 -255 3 -71 7 -177 10 -235 3
-58 7 -159 10 -225 3 -66 7 -169 10 -230 3 -60 7 -166 10 -235 3 -69 7 -170
10 -225 2 -55 7 -156 10 -225 3 -69 8 -161 10 -205 2 -44 7 -138 10 -210 3
-71 8 -168 10 -215 3 -47 7 -143 10 -215 3 -71 8 -164 10 -205 5 -79 13 -231
20 -388 2 -51 7 -132 9 -180 6 -87 15 -266 21 -397 11 -244 16 -326 20 -375 3
-30 7 -111 10 -180 3 -69 8 -159 10 -200 3 -41 7 -118 10 -170 3 -52 7 -133
10 -180 4 -81 10 -185 21 -370 2 -47 6 -123 9 -170 2 -47 6 -116 9 -155 3 -38
8 -128 11 -200 4 -71 8 -148 10 -170 2 -22 7 -98 10 -170 4 -71 9 -155 11
-185 2 -30 6 -95 9 -145 5 -88 9 -154 20 -340 3 -49 8 -121 11 -160 3 -38 7
-108 9 -155 5 -111 14 -261 20 -330 2 -30 7 -102 10 -160 4 -58 8 -134 10
-170 2 -36 7 -108 10 -160 8 -138 14 -236 20 -310 2 -36 7 -110 10 -165 3 -55
8 -122 10 -150 2 -27 7 -93 10 -145 3 -52 8 -126 11 -165 2 -38 6 -104 9 -145
2 -41 6 -104 9 -140 3 -36 8 -105 11 -155 3 -49 7 -117 10 -150 2 -33 7 -104
10 -158 2 -54 7 -121 10 -150 2 -28 7 -92 10 -142 3 -49 8 -117 10 -150 3 -33
7 -98 10 -144 5 -93 13 -203 20 -296 2 -33 7 -100 10 -150 4 -49 8 -112 10
-140 2 -27 6 -90 10 -140 3 -49 8 -117 10 -150 3 -33 7 -96 10 -140 3 -44 7
-107 10 -140 3 -33 7 -96 10 -140 3 -44 7 -107 10 -140 2 -33 7 -98 10 -145 3
-47 8 -110 10 -140 3 -30 7 -89 10 -130 3 -41 7 -104 10 -140 3 -36 8 -94 10
-130 2 -36 7 -103 10 -150 3 -47 7 -105 10 -130 2 -25 7 -85 10 -135 3 -49 8
-110 10 -135 2 -25 6 -81 10 -125 3 -44 8 -107 10 -140 3 -33 7 -96 10 -140 3
-44 7 -100 10 -125 4 -45 14 -178 20 -280 2 -30 7 -86 10 -125 3 -38 8 -95 10
-125 2 -30 7 -86 10 -125 3 -38 8 -101 10 -140 3 -38 7 -92 9 -120 11 -127 18
-214 21 -255 6 -98 16 -229 30 -385 2 -33 7 -94 10 -135 3 -41 8 -91 10 -110
2 -19 7 -75 10 -125 3 -49 7 -110 10 -135 3 -25 7 -79 10 -120 3 -41 7 -102
10 -135 3 -33 7 -89 10 -125 3 -36 7 -90 10 -120 9 -110 15 -187 20 -255 12
-150 15 -192 20 -240 3 -27 8 -75 10 -105 2 -30 6 -84 9 -120 3 -36 8 -94 11
-130 2 -36 7 -90 9 -120 3 -30 8 -86 11 -125 3 -38 8 -92 10 -120 8 -87 25
-292 30 -350 3 -56 15 -192 20 -240 2 -22 7 -74 10 -115 3 -41 8 -95 10 -120
2 -25 7 -76 10 -115 3 -38 8 -90 10 -115 2 -25 7 -76 10 -115 3 -38 8 -90 10
-115 3 -25 7 -81 10 -125 3 -44 8 -91 10 -105 2 -14 6 -63 10 -110 3 -47 8
-101 10 -120 2 -19 7 -71 11 -115 3 -44 7 -98 9 -120 4 -47 14 -164 20 -220 2
-22 7 -74 10 -115 3 -41 8 -88 10 -105 2 -16 6 -66 10 -110 3 -44 8 -93 10
-110 2 -16 6 -66 10 -110 3 -44 8 -93 10 -110 2 -16 7 -66 10 -110 3 -44 8
-100 10 -125 8 -76 14 -142 20 -210 3 -36 7 -85 10 -110 2 -25 7 -74 10 -110
3 -36 8 -81 10 -100 2 -19 7 -73 11 -120 3 -47 7 -92 9 -100 2 -8 6 -55 10
-105 3 -49 8 -101 10 -115 2 -14 6 -59 10 -101 3 -42 7 -85 9 -95 2 -11 7 -61
10 -112 4 -51 9 -100 10 -110 2 -9 7 -53 11 -97 3 -44 9 -100 11 -125 3 -25 7
-65 9 -90 1 -25 6 -72 9 -105 8 -81 15 -149 21 -215 3 -30 7 -73 10 -95 3 -22
8 -74 11 -115 2 -41 7 -86 9 -100 2 -14 7 -61 10 -105 4 -44 8 -91 10 -105 2
-14 7 -52 10 -85 3 -33 8 -78 10 -100 2 -22 7 -69 10 -105 3 -36 8 -81 9 -100
2 -19 7 -66 10 -105 4 -38 9 -83 11 -100 2 -16 7 -64 10 -105 3 -41 8 -88 10
-105 7 -42 12 -98 20 -189 4 -43 8 -86 10 -95 2 -9 6 -54 10 -100 4 -47 8 -92
10 -100 1 -9 6 -52 9 -96 4 -44 9 -91 11 -105 3 -24 15 -132 20 -195 2 -16 6
-55 9 -85 4 -30 9 -80 12 -110 3 -30 7 -68 9 -85 2 -16 6 -61 10 -100 3 -38 8
-81 10 -95 2 -14 7 -56 10 -95 3 -38 8 -83 10 -100 2 -16 7 -57 10 -90 3 -33
8 -74 10 -90 2 -17 7 -60 10 -95 3 -36 8 -83 11 -105 2 -22 6 -60 9 -85 3 -25
7 -63 9 -85 3 -22 8 -69 11 -105 3 -36 8 -78 10 -95 2 -16 6 -57 10 -90 3 -33
8 -73 10 -90 2 -16 6 -57 10 -90 3 -33 10 -96 15 -140 5 -44 14 -123 20 -175
5 -52 12 -113 14 -135 3 -22 8 -67 11 -100 3 -33 8 -71 10 -85 2 -14 6 -54 10
-90 4 -36 8 -76 10 -90 2 -14 6 -54 10 -90 4 -36 8 -76 10 -90 2 -14 6 -52 10
-85 3 -33 8 -73 10 -90 2 -16 6 -59 10 -95 4 -36 8 -72 10 -80 2 -8 7 -51 11
-95 3 -44 8 -82 9 -85 2 -3 6 -39 10 -80 4 -41 9 -83 10 -92 2 -9 6 -48 10
-85 3 -37 8 -79 10 -93 3 -14 7 -47 10 -75 3 -27 8 -66 10 -85 2 -19 7 -60 10
-90 4 -30 8 -66 10 -80 2 -14 7 -53 10 -88 4 -35 8 -71 10 -80 1 -9 6 -46 9
-82 6 -58 10 -89 21 -170 2 -14 7 -54 10 -90 4 -36 8 -72 10 -80 2 -8 6 -44
10 -80 4 -36 8 -72 10 -81 2 -8 6 -49 10 -90 4 -40 8 -76 10 -79 2 -3 6 -34 9
-69 4 -36 9 -79 11 -95 2 -17 12 -89 20 -161 9 -71 18 -141 20 -155 2 -14 7
-47 10 -75 5 -49 11 -94 20 -165 3 -19 7 -55 10 -80 3 -25 10 -76 15 -115 13
-99 19 -142 25 -205 3 -30 7 -66 10 -80 6 -34 17 -109 20 -146 4 -36 24 -186
30 -224 2 -14 6 -46 9 -72 3 -25 13 -97 21 -160 9 -62 18 -129 20 -148 14
-114 18 -137 21 -154 2 -10 6 -44 10 -75 3 -31 8 -64 10 -75 2 -10 6 -44 9
-75 4 -31 8 -63 10 -71 2 -8 7 -37 10 -65 5 -46 12 -97 21 -150 4 -25 22 -156
29 -215 4 -25 13 -90 21 -145 9 -55 17 -111 18 -125 3 -27 34 -248 41 -290 2
-14 13 -88 25 -165 11 -77 22 -153 25 -170 12 -74 15 -93 20 -135 3 -25 8 -58
11 -75 3 -16 7 -43 10 -60 4 -34 13 -95 21 -140 2 -16 6 -41 8 -55 8 -53 36
-236 40 -260 2 -14 9 -56 15 -95 5 -38 12 -81 15 -95 3 -14 7 -43 10 -65 3
-22 7 -49 9 -60 3 -18 7 -41 21 -135 4 -24 47 -285 59 -360 4 -19 9 -47 12
-62 3 -15 7 -39 9 -55 2 -15 6 -41 9 -58 3 -16 12 -73 21 -125 9 -52 18 -106
21 -120 3 -14 7 -41 9 -60 3 -19 9 -55 14 -80 6 -25 13 -63 16 -85 13 -77 33
-189 40 -225 3 -14 12 -63 20 -110 8 -47 17 -94 19 -105 5 -24 33 -179 41
-220 12 -68 17 -93 31 -155 8 -36 17 -81 20 -100 3 -19 8 -38 11 -43 2 -4 7
-20 9 -35 3 -15 9 -40 14 -57 6 -16 19 -64 31 -105 63 -229 157 -489 275 -760
26 -59 192 -395 213 -430 5 -8 40 -67 76 -130 89 -151 267 -412 315 -460 3 -3
23 -27 45 -55 52 -66 215 -230 285 -287 102 -83 158 -117 382 -227 123 -60
261 -130 308 -156 47 -26 110 -61 140 -77 30 -17 62 -36 70 -43 8 -6 38 -24
65 -40 50 -29 270 -171 292 -190 25 -21 40 -32 118 -90 97 -72 297 -269 351
-345 22 -30 59 -93 83 -139 144 -282 374 -550 681 -792 301 -238 651 -409 870
-425 250 -19 467 118 649 410 121 194 233 516 276 796 19 120 23 151 32 245 9
102 9 529 0 660 -4 55 -10 136 -12 180 -3 44 -7 112 -10 150 -3 39 -7 113 -10
165 -3 52 -7 124 -10 160 -3 36 -7 112 -10 170 -4 103 -9 190 -20 360 -3 47
-8 132 -10 190 -3 58 -7 137 -10 175 -2 39 -7 122 -10 185 -4 63 -8 147 -10
185 -3 39 -7 126 -10 195 -3 69 -7 152 -10 185 -3 33 -7 119 -10 190 -3 72 -8
159 -10 195 -2 36 -6 124 -10 195 -3 72 -8 164 -10 205 -5 104 -16 323 -20
395 -8 168 -17 367 -20 425 -2 36 -6 130 -10 210 -3 80 -8 183 -10 230 -3 47
-7 139 -10 205 -8 188 -14 321 -20 440 -3 61 -8 164 -11 230 -14 356 -21 504
-29 675 -3 63 -7 169 -10 235 -2 66 -7 179 -10 250 -3 72 -7 182 -10 245 -2
63 -7 171 -10 240 -3 69 -7 184 -10 255 -5 156 -13 343 -20 520 -3 72 -8 180
-10 240 -2 61 -6 182 -10 270 -3 88 -7 203 -10 255 -2 52 -7 181 -10 285 -3
105 -8 231 -10 280 -3 50 -7 164 -10 255 -5 154 -8 256 -20 585 -11 303 -23
675 -30 895 -7 228 -15 463 -20 615 -6 165 -14 430 -20 640 -2 83 -7 231 -10
330 -14 443 -20 618 -30 1035 -3 96 -7 245 -9 330 -3 85 -8 263 -11 395 -4
132 -8 305 -10 385 -3 80 -7 249 -10 375 -3 127 -7 309 -10 405 -3 96 -7 270
-10 385 -3 116 -7 314 -10 440 -3 127 -8 313 -10 415 -2 102 -7 309 -10 460
-12 540 -12 625 5 622 8 -2 26 -6 40 -9 108 -20 512 -128 760 -203 282 -85
497 -152 515 -159 11 -5 61 -21 110 -36 50 -14 169 -51 265 -80 320 -98 672
-198 740 -210 18 -3 37 -8 42 -11 5 -3 18 -7 31 -10 12 -2 31 -6 42 -8 76 -18
316 -67 345 -71 19 -3 44 -6 55 -9 11 -2 45 -7 75 -11 30 -4 63 -9 72 -10 135
-26 643 -26 773 -1 11 2 42 7 68 10 27 4 58 9 70 12 12 2 39 6 62 10 75 11
389 94 525 138 209 68 628 224 755 281 17 8 59 26 95 41 36 14 85 35 110 46
25 11 54 24 65 29 198 85 773 362 960 464 39 21 104 56 145 78 237 127 432
239 785 450 20 12 37 22 230 142 299 186 787 512 1030 687 22 16 94 68 160
115 97 70 430 314 470 346 6 4 127 98 270 208 143 111 274 213 291 228 17 14
40 33 50 41 66 52 132 106 229 185 60 50 118 97 129 105 10 8 23 20 30 25 6 6
38 33 71 60 33 28 62 52 65 55 3 3 46 39 95 80 50 41 92 77 95 80 3 3 55 48
115 100 113 97 518 453 545 480 23 22 207 190 230 210 18 16 148 137 279 259
436 408 1191 1162 1627 1625 21 22 100 113 144 166 25 29 50 58 55 64 6 6 60
70 120 141 59 72 122 146 139 166 17 19 52 60 77 90 25 29 153 180 283 334
131 154 259 305 285 335 26 30 96 114 156 185 134 160 278 330 314 370 14 17
49 57 76 90 28 33 52 62 55 65 3 3 25 30 50 60 25 30 52 62 60 70 8 9 26 30
40 46 51 61 125 149 140 168 8 10 20 23 26 30 9 10 170 200 297 351 23 27 60
70 82 96 73 84 80 92 195 229 83 99 514 607 538 635 15 17 49 57 77 90 27 33
87 105 134 160 47 55 112 132 146 171 33 39 71 84 85 100 13 16 47 56 74 89
28 33 52 62 55 65 4 3 40 46 81 95 41 50 77 92 80 95 3 3 44 50 90 105 46 55
86 102 89 105 3 3 40 46 81 95 41 50 84 101 96 115 47 54 269 316 284 334 8
10 62 73 118 140 57 66 111 130 120 141 10 12 51 61 93 110 79 94 346 427 389
485 14 19 36 48 51 64 142 170 611 841 844 1206 12 19 42 67 67 105 38 59 147
240 293 485 62 105 173 304 290 520 91 169 384 761 464 940 41 91 89 197 108
237 18 40 33 78 33 86 0 7 4 17 9 23 7 7 91 206 148 349 9 22 22 54 29 70 37
86 233 621 289 790 13 39 58 169 100 290 42 121 84 240 92 265 8 25 17 52 20
60 3 8 7 20 9 25 1 6 33 96 69 200 185 525 482 1434 510 1555 2 8 17 65 35
125 27 94 104 384 116 438 5 23 9 40 28 118 8 37 17 78 20 90 2 13 10 47 16
74 18 79 19 83 46 220 14 72 31 166 39 210 7 44 16 94 19 110 3 17 8 50 12 75
3 25 7 52 9 60 2 8 7 38 11 65 3 28 7 57 9 65 1 8 6 40 10 70 4 30 9 63 10 72
2 9 7 48 10 85 4 37 9 76 11 86 2 10 8 64 15 120 16 147 18 165 24 232 3 33 7
80 9 105 11 110 16 170 21 245 4 44 8 100 10 125 2 25 7 83 10 130 3 47 8 119
11 160 3 41 7 113 9 160 6 107 13 252 20 355 28 486 20 1046 -20 1325 -2 14
-6 54 -10 90 -3 36 -8 72 -10 80 -2 8 -7 44 -10 80 -4 36 -8 67 -10 70 -2 3
-6 33 -10 65 -4 33 -10 76 -15 95 -5 19 -11 55 -14 79 -10 73 -85 438 -118
566 -16 66 -32 129 -34 140 -9 47 -106 393 -152 545 -56 180 -158 480 -216
630 -21 52 -38 100 -40 105 -2 6 -8 24 -15 40 -7 17 -30 75 -53 130 -151 377
-363 825 -575 1215 -52 96 -112 207 -133 245 -70 130 -97 180 -125 230 -15 28
-42 77 -60 110 -18 33 -46 85 -63 115 -32 60 -63 116 -137 255 -27 50 -68 125
-92 167 -23 43 -43 79 -43 82 0 3 -15 31 -34 63 -18 32 -49 87 -68 123 -107
200 -135 250 -167 295 -69 101 -228 303 -330 420 -98 113 -416 436 -526 536
-61 54 -300 257 -336 285 -397 300 -676 493 -924 639 -395 233 -647 367 -1026
548 -151 72 -176 83 -334 152 -60 26 -138 61 -172 76 -34 16 -66 29 -71 29 -5
0 -22 6 -38 14 -88 43 -631 250 -869 331 -60 20 -119 41 -130 45 -24 10 -276
93 -290 96 -5 1 -44 13 -85 26 -41 14 -100 32 -130 41 -30 9 -107 32 -170 51
-154 46 -312 91 -385 111 -122 33 -250 67 -265 70 -8 2 -78 20 -155 40 -188
49 -707 171 -803 190 -9 1 -64 13 -122 25 -146 31 -433 88 -480 96 -14 3 -83
16 -155 29 -71 14 -143 27 -160 30 -16 3 -70 12 -120 21 -49 8 -103 17 -120
20 -16 2 -41 6 -55 9 -62 12 -78 15 -120 20 -25 3 -52 8 -60 10 -8 2 -35 7
-60 10 -25 4 -61 8 -80 11 -19 3 -57 9 -85 14 -27 5 -72 12 -98 15 -27 4 -56
8 -65 9 -16 3 -74 12 -147 22 -310 42 -344 46 -455 60 -19 2 -51 6 -70 9 -19
3 -60 8 -90 11 -102 11 -157 17 -250 29 -19 2 -59 7 -87 10 -29 3 -74 7 -100
10 -115 12 -214 22 -298 30 -108 10 -162 16 -212 20 -29 3 -77 7 -107 10 -30
3 -83 8 -117 10 -35 2 -93 7 -129 10 -36 3 -94 7 -130 10 -36 3 -94 7 -130 10
-69 5 -161 11 -300 20 -47 3 -114 7 -150 10 -36 2 -121 7 -190 10 -69 3 -161
7 -205 10 -90 5 -282 13 -490 20 -77 3 -223 8 -325 11 -178 6 -1608 13 -1613
8z m5072 -6907 c52 -3 149 -8 215 -11 67 -4 148 -9 181 -11 33 -3 101 -7 150
-10 103 -6 198 -13 270 -20 28 -2 90 -7 139 -11 48 -3 96 -7 105 -9 9 -2 57
-6 107 -10 49 -4 100 -8 114 -10 14 -2 57 -7 95 -10 39 -4 86 -9 105 -11 19
-3 58 -7 85 -9 28 -3 84 -9 125 -15 41 -5 100 -12 130 -15 30 -3 70 -8 88 -11
17 -2 47 -6 65 -8 109 -15 135 -18 157 -22 14 -2 50 -6 80 -10 30 -3 57 -8 60
-9 3 -2 37 -6 75 -10 39 -4 73 -9 76 -11 3 -1 32 -6 65 -9 32 -4 61 -8 64 -10
3 -2 28 -6 55 -9 28 -4 57 -8 65 -10 8 -1 38 -6 65 -10 28 -4 73 -11 100 -16
28 -5 68 -12 89 -15 21 -3 89 -14 150 -25 61 -11 123 -22 139 -25 118 -20 375
-68 527 -99 14 -2 61 -12 105 -20 98 -20 97 -19 219 -46 54 -12 106 -23 115
-25 9 -2 48 -10 86 -19 39 -9 81 -18 95 -20 14 -2 75 -16 135 -31 61 -14 117
-27 125 -29 130 -26 561 -196 801 -315 260 -130 510 -284 654 -402 248 -205
396 -365 540 -584 205 -314 319 -649 364 -1075 10 -85 6 -582 -4 -675 -13
-118 -40 -322 -50 -375 -3 -14 -7 -41 -10 -60 -15 -95 -60 -292 -100 -445 -25
-93 -47 -179 -50 -190 -18 -79 -196 -590 -242 -695 -26 -59 -31 -72 -71 -170
-67 -163 -279 -619 -311 -670 -6 -8 -27 -49 -48 -90 -86 -170 -252 -464 -391
-695 -47 -77 -90 -150 -96 -162 -6 -13 -14 -23 -18 -23 -5 0 -8 -5 -8 -11 0
-5 -18 -37 -40 -69 -22 -32 -40 -61 -40 -64 0 -14 -572 -855 -615 -903 -5 -6
-30 -40 -55 -74 -72 -102 -276 -374 -369 -494 -117 -152 -384 -489 -391 -495
-3 -3 -54 -64 -113 -137 -59 -73 -113 -138 -120 -145 -6 -7 -46 -53 -87 -103
-173 -206 -196 -233 -250 -295 -31 -36 -108 -123 -171 -195 -62 -71 -128 -146
-146 -165 -17 -19 -40 -44 -50 -56 -55 -64 -137 -155 -170 -190 -21 -22 -74
-80 -118 -128 -85 -94 -88 -97 -265 -287 -525 -562 -1287 -1327 -1914 -1920
-152 -144 -181 -171 -292 -275 -60 -56 -128 -119 -150 -140 -39 -37 -178 -164
-287 -264 -28 -25 -59 -54 -71 -65 -12 -11 -64 -58 -116 -105 -52 -47 -97 -87
-100 -90 -7 -8 -299 -269 -329 -295 -13 -11 -29 -25 -35 -31 -10 -9 -243 -214
-435 -383 -35 -31 -69 -60 -75 -66 -6 -5 -40 -35 -76 -65 -36 -30 -67 -57 -70
-60 -3 -3 -36 -32 -75 -65 -38 -33 -72 -62 -75 -65 -3 -3 -34 -30 -70 -60 -36
-30 -78 -67 -95 -82 -36 -31 -422 -358 -484 -408 -56 -46 -80 -66 -116 -98
-16 -15 -66 -56 -110 -92 -44 -35 -85 -69 -91 -75 -6 -5 -80 -66 -164 -135
-84 -69 -198 -162 -254 -208 -55 -46 -108 -89 -118 -97 -54 -44 -640 -515
-668 -537 -19 -15 -116 -91 -216 -170 -485 -384 -903 -706 -1434 -1105 -162
-122 -299 -226 -305 -231 -19 -16 -402 -299 -640 -474 -224 -165 -988 -715
-1173 -845 -45 -32 -111 -78 -146 -103 -95 -68 -271 -190 -571 -398 -263 -183
-398 -275 -695 -477 -179 -122 -969 -648 -1105 -737 -552 -359 -656 -426
-1004 -645 -134 -85 -246 -152 -248 -149 -3 3 -7 164 -9 358 -30 3250 -21
7213 21 9483 3 127 7 367 10 535 10 602 22 1138 41 1800 14 476 10 849 -11
1015 -5 42 -14 111 -21 170 -3 28 -12 93 -21 145 -8 52 -16 106 -18 120 -6 35
-12 70 -36 185 -12 55 -23 110 -25 122 -27 148 -144 555 -226 787 -83 235
-106 292 -212 531 -83 186 -231 461 -335 620 -52 80 -157 230 -182 260 -9 11
-43 52 -75 90 -144 173 -827 856 -1154 1155 -19 18 -60 55 -90 84 -63 58 -128
117 -254 231 -49 44 -94 85 -100 90 -6 6 -49 43 -96 84 -47 40 -98 85 -115
100 -16 15 -79 69 -140 120 -60 52 -121 103 -135 115 -14 12 -90 75 -170 141
-80 66 -154 127 -165 137 -19 15 -92 75 -125 101 -8 7 -35 28 -60 47 -41 33
-170 135 -250 199 -48 38 -259 198 -413 313 l-128 96 58 22 c32 12 175 65 318
117 143 51 283 102 310 112 28 11 109 39 180 64 72 25 189 66 260 91 175 61
1116 371 1335 440 173 53 340 105 535 164 55 17 114 34 130 38 17 4 35 9 40
13 6 3 15 6 20 7 6 1 66 19 135 39 69 20 134 39 145 42 11 3 49 14 85 25 77
23 778 218 800 223 8 2 76 20 150 40 74 20 142 38 150 40 8 2 44 11 80 20 36
9 72 19 80 21 8 2 177 44 375 94 198 50 369 92 380 95 11 2 97 22 190 45 149
35 443 103 500 115 11 3 31 7 45 10 14 3 34 7 45 9 11 2 58 13 105 25 47 11
99 22 115 25 17 3 41 8 55 11 14 3 36 8 50 11 13 3 56 12 95 20 38 9 79 17 90
20 11 2 31 6 45 9 14 3 34 7 45 10 124 26 677 137 700 140 17 2 41 6 55 9 22
5 168 33 210 41 36 6 87 15 110 20 14 3 39 7 55 10 17 3 66 12 110 20 44 8 94
17 110 19 17 3 39 7 50 9 31 7 85 16 370 63 116 19 221 37 235 39 14 3 43 7
65 10 22 3 51 7 65 10 14 3 40 7 58 10 17 3 44 7 60 9 15 3 47 7 72 11 25 3
56 8 70 10 24 4 65 11 120 20 14 2 49 7 79 10 30 4 61 8 70 10 27 5 93 14 141
20 25 3 56 8 70 10 31 5 80 12 145 20 28 4 57 8 65 10 8 2 44 7 80 10 36 3 90
10 120 15 30 5 80 11 111 15 31 3 65 7 75 9 11 2 51 7 89 11 39 4 77 8 85 10
14 3 67 9 180 21 25 2 63 6 85 9 22 3 63 7 90 10 28 3 70 8 95 11 25 3 61 7
81 9 61 5 162 16 199 20 19 3 62 7 95 10 71 6 141 12 210 20 28 3 75 8 105 10
30 2 83 7 118 10 34 3 92 7 130 10 37 3 94 8 127 10 226 20 420 34 535 40 36
2 106 6 155 9 207 14 269 17 560 31 196 9 336 15 544 20 113 3 206 7 208 9 6
5 1505 -2 1612 -7z"/>
<path d="M61957 58184 c-1 -1 -67 -5 -147 -8 -80 -4 -156 -8 -170 -10 -14 -2
-59 -7 -100 -10 -41 -3 -84 -8 -95 -10 -11 -2 -45 -7 -75 -11 -131 -16 -231
-32 -330 -50 -14 -3 -41 -7 -60 -10 -64 -11 -403 -83 -494 -105 -49 -12 -94
-23 -100 -24 -6 -1 -20 -5 -31 -9 -11 -3 -31 -8 -45 -11 -22 -5 -55 -13 -122
-31 -10 -3 -26 -7 -35 -9 -44 -10 -177 -47 -183 -51 -4 -2 -17 -6 -31 -9 -49
-9 -373 -108 -619 -189 -245 -81 -687 -240 -785 -282 -36 -16 -68 -28 -75 -29
-3 -1 -34 -13 -70 -28 -36 -15 -121 -50 -190 -78 -69 -28 -138 -57 -155 -65
-16 -7 -86 -38 -155 -68 -172 -75 -344 -156 -570 -266 -200 -97 -488 -248
-602 -316 -9 -5 -41 -23 -69 -39 -101 -54 -350 -207 -509 -311 -408 -266 -681
-488 -1055 -858 -506 -499 -1000 -1129 -1480 -1884 -58 -91 -290 -477 -327
-543 -13 -25 -61 -110 -105 -190 -107 -192 -224 -416 -327 -625 -103 -208
-216 -444 -216 -450 0 -3 -17 -42 -39 -87 -52 -113 -70 -153 -136 -303 -31
-71 -66 -150 -77 -175 -11 -25 -88 -200 -170 -390 -82 -190 -153 -354 -158
-365 -5 -11 -66 -155 -135 -320 -70 -165 -133 -313 -140 -330 -21 -47 -229
-546 -375 -900 -154 -374 -159 -385 -171 -407 -5 -10 -9 -22 -9 -28 0 -6 -11
-33 -25 -62 -14 -28 -25 -57 -25 -63 0 -5 -9 -27 -20 -48 -11 -20 -21 -40 -21
-44 -2 -13 -117 -300 -139 -348 -5 -11 -25 -60 -45 -110 -20 -49 -40 -99 -45
-110 -5 -11 -89 -218 -186 -460 -97 -242 -182 -453 -189 -470 -7 -16 -61 -151
-120 -300 -60 -148 -114 -283 -121 -300 -8 -16 -84 -208 -170 -425 -86 -217
-194 -492 -241 -610 -281 -710 -465 -1178 -610 -1550 -46 -118 -87 -224 -92
-235 -5 -11 -37 -92 -70 -180 -63 -163 -76 -196 -92 -227 -5 -10 -9 -23 -9
-30 0 -7 -6 -24 -13 -38 -7 -14 -21 -47 -31 -75 -10 -27 -22 -59 -27 -70 -5
-11 -29 -74 -55 -140 -40 -106 -117 -305 -139 -360 -4 -11 -9 -25 -10 -30 -2
-6 -12 -32 -24 -57 -11 -26 -21 -50 -21 -53 0 -4 -34 -92 -75 -196 -41 -104
-75 -191 -75 -193 0 -3 -5 -17 -12 -33 -6 -15 -12 -30 -13 -33 -1 -3 -7 -18
-14 -35 -10 -26 -90 -233 -206 -535 -17 -47 -36 -94 -40 -105 -5 -11 -9 -22
-10 -25 -1 -3 -7 -18 -14 -35 -6 -16 -28 -73 -47 -125 -20 -52 -40 -104 -44
-115 -5 -11 -28 -69 -51 -130 -23 -60 -47 -123 -54 -140 -7 -16 -29 -75 -50
-130 -20 -55 -41 -109 -46 -120 -8 -18 -130 -338 -285 -745 -34 -91 -97 -255
-139 -365 -42 -110 -80 -212 -85 -226 -4 -15 -15 -42 -23 -60 -8 -19 -25 -61
-36 -94 -12 -33 -26 -69 -31 -80 -5 -11 -26 -65 -46 -120 -20 -55 -42 -113
-49 -130 -7 -16 -23 -57 -34 -90 -12 -33 -26 -69 -31 -80 -4 -11 -25 -65 -45
-120 -21 -55 -48 -127 -60 -160 -13 -33 -56 -145 -95 -250 -39 -104 -96 -255
-127 -335 -30 -80 -75 -199 -100 -265 -24 -66 -51 -136 -58 -155 -8 -19 -53
-138 -100 -265 -47 -126 -89 -237 -92 -245 -3 -8 -7 -19 -9 -25 -1 -5 -28 -77
-59 -160 -31 -82 -64 -168 -72 -190 -8 -22 -22 -56 -30 -75 -8 -19 -17 -42
-19 -50 -2 -8 -44 -123 -94 -255 -90 -238 -106 -281 -174 -465 -92 -251 -159
-429 -178 -474 -11 -27 -21 -56 -23 -65 -2 -9 -18 -52 -35 -96 -17 -44 -45
-118 -61 -165 -17 -47 -35 -94 -39 -105 -15 -34 -130 -342 -130 -349 0 -3 -20
-56 -44 -118 -24 -62 -80 -214 -125 -338 -46 -124 -93 -252 -106 -285 -37 -95
-165 -445 -165 -451 0 -3 -6 -20 -14 -37 -7 -18 -24 -61 -36 -97 -13 -36 -29
-78 -36 -95 -7 -16 -34 -88 -59 -160 -26 -71 -69 -188 -95 -260 -89 -241 -202
-549 -240 -655 -33 -91 -75 -206 -267 -730 -19 -52 -54 -149 -78 -215 -24 -66
-62 -172 -85 -235 -23 -63 -61 -169 -85 -235 -24 -66 -93 -259 -155 -430 -62
-170 -130 -359 -152 -420 -22 -60 -44 -121 -48 -135 -5 -14 -24 -68 -43 -120
-19 -52 -96 -268 -171 -480 -76 -212 -141 -394 -146 -405 -13 -30 -160 -450
-160 -457 0 -3 -8 -23 -17 -44 -9 -22 -18 -43 -19 -49 -3 -14 -74 -216 -84
-240 -5 -11 -15 -40 -23 -65 -8 -25 -38 -110 -67 -190 -28 -80 -69 -194 -90
-255 -21 -60 -70 -200 -108 -310 -176 -503 -403 -1160 -487 -1405 -37 -107
-82 -240 -102 -295 -19 -55 -36 -107 -39 -115 -2 -8 -115 -348 -252 -755 -136
-407 -248 -743 -249 -748 -2 -8 -124 -391 -153 -477 -75 -227 -257 -818 -345
-1125 -13 -44 -34 -118 -48 -165 -91 -311 -208 -782 -223 -900 -2 -19 -8 -57
-12 -85 -9 -57 -8 -189 3 -255 38 -243 205 -456 425 -542 36 -14 79 -29 95
-32 17 -4 41 -9 55 -12 42 -8 190 -5 275 7 341 46 791 223 1275 501 186 106
153 86 380 235 192 126 331 221 340 232 3 4 21 18 40 31 33 23 235 180 284
220 243 203 304 257 522 475 170 170 298 309 420 460 38 46 423 556 469 619
11 16 29 40 40 54 11 15 96 130 188 257 93 126 176 240 185 253 9 12 106 147
215 300 108 152 204 285 212 295 8 9 15 19 15 21 0 2 55 82 122 178 134 190
190 271 449 648 251 365 425 623 769 1140 166 250 320 481 341 513 21 32 39
60 39 63 0 3 5 10 11 17 9 11 105 156 248 377 27 41 87 134 133 205 156 240
194 299 278 430 46 72 106 166 134 209 248 386 298 464 306 481 8 17 217 347
250 395 37 54 651 1040 891 1430 32 52 62 100 67 105 4 6 11 17 15 25 11 22
46 79 161 265 17 28 36 59 43 70 18 30 191 314 326 535 66 107 128 209 137
225 10 17 149 248 310 515 161 267 301 501 312 520 11 19 63 107 116 195 53
88 103 172 112 187 8 15 56 96 106 180 138 233 353 595 373 631 39 68 220 376
260 441 22 37 41 70 41 71 0 2 32 56 70 121 39 64 70 118 70 119 0 2 28 50 61
107 34 56 70 117 79 133 9 17 82 143 162 280 303 524 414 715 428 742 15 27
44 78 290 508 57 99 112 196 123 215 11 19 66 117 123 217 57 101 104 186 104
190 0 3 6 14 14 22 7 9 27 41 43 71 17 30 69 125 118 210 207 366 450 801 543
970 14 25 28 50 32 55 4 6 25 44 47 85 23 41 82 149 133 240 51 91 108 194
128 230 19 36 82 151 140 255 58 105 118 215 135 245 17 30 40 73 52 95 82
147 115 208 115 211 0 1 15 29 34 61 18 32 50 90 71 128 21 39 50 93 65 120
15 28 42 77 60 110 18 33 46 85 63 115 16 30 44 82 62 115 18 33 47 87 65 120
29 52 213 393 332 615 59 108 95 176 138 255 59 109 97 181 157 295 31 58 68
128 83 155 15 28 53 100 85 160 32 61 70 133 85 160 27 50 55 103 186 350 37
72 92 175 121 230 30 55 65 123 79 150 13 28 42 82 62 120 54 100 193 367 275
525 38 74 95 185 127 245 115 220 307 594 555 1080 71 138 305 603 521 1035
363 727 523 1050 725 1468 44 89 116 237 160 330 45 92 106 219 136 282 145
302 167 350 198 415 31 68 101 216 170 360 43 91 120 254 155 330 15 33 44 96
65 140 41 88 63 135 155 335 71 154 98 214 130 285 12 28 38 84 57 125 19 41
72 158 118 260 45 102 99 220 119 263 20 43 36 80 36 82 0 2 18 43 40 90 22
47 40 88 40 90 0 2 13 32 29 67 16 35 61 137 101 228 40 91 81 184 91 207 10
23 19 44 19 47 0 2 13 33 29 68 16 35 41 92 56 128 15 36 35 83 45 105 72 161
540 1288 540 1301 0 3 7 20 14 37 8 18 38 91 66 162 28 72 55 139 60 150 16
37 101 257 201 525 55 146 104 274 108 285 5 11 32 85 61 165 28 80 54 152 57
160 3 8 7 20 9 25 1 6 21 62 44 125 108 298 349 1029 395 1200 3 8 25 85 50
170 26 85 48 165 51 176 2 12 13 51 23 85 57 189 184 734 225 969 23 128 25
141 32 190 3 25 8 54 10 65 2 11 6 44 10 73 3 29 7 62 9 74 3 11 7 53 11 92 3
39 8 82 10 96 10 54 13 439 3 500 -69 466 -390 821 -894 988 -114 38 -283 78
-370 88 -22 3 -51 7 -65 9 -32 6 -339 22 -343 19z"/>
<path d="M40818 15585 c-2 -2 -61 -6 -133 -10 -132 -6 -149 -8 -265 -19 -95
-10 -146 -16 -230 -27 -41 -6 -88 -12 -105 -14 -83 -10 -124 -16 -170 -25 -54
-10 -88 -16 -150 -25 -22 -4 -47 -8 -55 -10 -8 -2 -31 -7 -50 -11 -19 -3 -39
-7 -45 -8 -5 -1 -26 -6 -45 -10 -285 -61 -448 -102 -685 -171 -193 -56 -299
-89 -355 -110 -25 -9 -49 -18 -55 -19 -5 -2 -17 -6 -25 -9 -8 -3 -42 -14 -75
-25 -148 -49 -541 -205 -700 -277 -16 -8 -82 -37 -145 -65 -190 -86 -604 -296
-733 -372 -26 -15 -50 -28 -53 -28 -2 0 -21 -11 -42 -24 -20 -13 -89 -54 -152
-91 -240 -141 -617 -388 -785 -514 -38 -29 -79 -59 -90 -67 -50 -36 -208 -157
-215 -164 -3 -3 -36 -32 -75 -65 -143 -123 -378 -355 -525 -520 -99 -111 -294
-342 -319 -379 -8 -12 -18 -23 -21 -26 -13 -10 -189 -249 -262 -355 -63 -92
-158 -241 -241 -380 -21 -35 -177 -351 -177 -359 0 -2 -13 -33 -29 -68 -62
-134 -221 -527 -293 -723 -46 -125 -176 -498 -183 -525 -1 -3 -4 -12 -8 -20
-13 -32 -177 -559 -183 -586 -1 -6 -13 -48 -27 -95 -13 -46 -27 -93 -30 -104
-3 -11 -24 -89 -46 -174 -23 -85 -43 -163 -46 -175 -2 -12 -22 -93 -43 -181
-37 -153 -86 -376 -97 -440 -3 -16 -7 -41 -10 -55 -9 -45 -27 -145 -30 -165
-14 -106 -17 -130 -20 -144 -30 -157 -25 -507 10 -706 22 -127 26 -147 42
-205 164 -618 566 -1073 1178 -1335 122 -52 328 -120 425 -140 8 -2 38 -9 65
-15 99 -23 234 -47 315 -55 30 -4 69 -8 85 -11 148 -22 660 -22 795 0 14 3 52
7 85 11 33 3 69 8 80 10 11 3 36 7 55 10 46 6 90 14 116 20 12 3 39 7 60 10
21 4 57 11 79 17 22 5 51 12 65 15 130 23 521 143 730 223 30 12 66 25 80 30
31 9 190 75 247 101 24 10 45 19 48 20 2 0 36 16 75 35 39 19 73 34 76 34 7 0
383 188 469 235 118 64 274 153 407 234 71 42 136 81 145 86 99 59 406 262
588 390 139 98 485 353 495 365 3 3 23 19 45 35 22 17 42 32 45 35 3 3 37 30
75 60 91 71 291 237 449 373 480 413 1143 1082 1452 1466 10 13 24 28 29 35 6
6 28 34 50 61 21 28 42 52 46 55 15 12 154 209 251 355 162 246 375 596 503
830 15 28 31 55 35 60 8 12 74 134 172 320 69 129 378 750 378 758 0 2 20 48
46 100 25 53 46 100 46 104 1 5 19 43 40 86 21 43 38 80 38 83 0 3 10 26 21
52 87 190 273 646 325 797 20 60 52 202 59 265 3 30 9 69 12 85 6 34 6 370 0
400 -3 11 -8 45 -11 75 -56 450 -273 898 -554 1142 -174 152 -605 366 -942
467 -164 50 -378 98 -520 117 -19 2 -46 7 -60 9 -14 3 -54 8 -90 11 -36 3 -76
8 -90 11 -27 5 -636 13 -642 8z"/>
</g>
</svg>
