<?xml version="1.0" encoding="utf-8"?>
<!-- Generator: Adobe Illustrator 19.2.1, SVG Export Plug-In . SVG Version: 6.00 Build 0)  -->
<svg version="1.1" id="Layer_1" xmlns="http://www.w3.org/2000/svg" xmlns:xlink="http://www.w3.org/1999/xlink" x="0px" y="0px"
	 viewBox="0 0 39 39" style="enable-background:new 0 0 39 39;" xml:space="preserve">
<style type="text/css">
	.st0{fill:#333333;}
</style>
<title>Fill 19 Copy</title>
<desc>Created with Sketch.</desc>
<g id="Page-1">
	<path id="Fill-19-Copy" class="st0" d="M16.4,29.8c-7.7,0-13.9-6.1-13.9-13.7S8.7,2.5,16.4,2.5s13.9,6.1,13.9,13.7
		S24.1,29.8,16.4,29.8L16.4,29.8z M38.6,36.9L28.6,27c2.6-2.9,4.3-6.6,4.3-10.8C32.8,7.2,25.5,0,16.4,0S0,7.2,0,16.2
		c0,8.9,7.3,16.1,16.4,16.1c3.9,0,7.5-1.4,10.3-3.6l10.1,9.9c0.5,0.5,1.3,0.5,1.8,0C39.1,38.2,39.1,37.4,38.6,36.9L38.6,36.9z"/>
</g>
</svg>
